The Cloud Door (1994)

Synopsis from IMDb:

A very clever parrot lives in a hindu palace, surrounded by many beautiful girls, but the parrot escapes, and is trapped far from the palace. One day, when it's new owner is sleeping, the bird convinces a young boy to open the cage door. In return, it shows the boy a secret passage to get into the palace. 

Dual Audio: 
Track 1 - Hindi
Track 2 - Russian 

Rip Specs:

General

Format                                   : AVI
Format/Info                              : Audio Video Interleave
File size                                : 257 MiB
Duration                                 : 28mn 14s
Overall bit rate                         : 1 274 Kbps

Video
ID                                       : 0
Format                                   : MPEG-4 Visual
Format profile                           : Advanced Simple@L5
Format settings, BVOP                    : 1
Format settings, QPel                    : No
Format settings, GMC                     : No warppoints
Format settings, Matrix                  : Default (MPEG)
Codec ID                                 : XVID
Codec ID/Hint                            : XviD
Duration                                 : 28mn 14s
Bit rate                                 : 1 013 Kbps
Width                                    : 560 pixels
Height                                   : 416 pixels
Display aspect ratio                     : 4:3
Frame rate                               : 25.000 fps
Color space                              : YUV
Chroma subsampling                       : 4:2:0
Bit depth                                : 8 bits
Scan type                                : Progressive
Compression mode                         : Lossy
Bits/(Pixel*Frame)                       : 0.174
Stream size                              : 205 MiB (79%)
Writing library                          : XviD 1.1.2 (UTC 2006-11-01)

Audio #1
ID                                       : 1
Format                                   : MPEG Audio
Format version                           : Version 1
Format profile                           : Layer 3
Mode                                     : Joint stereo
Mode extension                           : MS Stereo
Codec ID                                 : 55
Codec ID/Hint                            : MP3
Duration                                 : 28mn 14s
Bit rate mode                            : Constant
Bit rate                                 : 128 Kbps
Channel(s)                               : 2 channels
Sampling rate                            : 48.0 KHz
Compression mode                         : Lossy
Stream size                              : 25.8 MiB (10%)
Alignment                                : Aligned on interleaves
Interleave, duration                     : 980 ms (24.51 video frames)
Interleave, preload duration             : 216 ms
Title                                    : Original (hindy)
Writing library                          : LAME3.97 
Encoding settings                        : -m j -V 4 -q 2 -lowpass 17 -b 128

Audio #2
ID                                       : 2
Format                                   : MPEG Audio
Format version                           : Version 1
Format profile                           : Layer 3
Mode                                     : Joint stereo
Mode extension                           : MS Stereo
Codec ID                                 : 55
Codec ID/Hint                            : MP3
Duration                                 : 28mn 14s
Bit rate mode                            : Constant
Bit rate                                 : 128 Kbps
Channel(s)                               : 2 channels
Sampling rate                            : 48.0 KHz
Compression mode                         : Lossy
Stream size                              : 25.8 MiB (10%)
Alignment                                : Aligned on interleaves
Interleave, duration                     : 980 ms (24.51 video frames)
Interleave, preload duration             : 216 ms
Title                                    : MVO (rus)
Writing library                          : LAME3.97 
Encoding settings                        : -m j -V 4 -q 0 -lowpass 17 -b 128


All credits to the encoder and uploader at rutracker.